<svg
          width="143.623"
          height="40.097"
          viewBox="0 0 143.623 40.097"
          xmlns="http://www.w3.org/2000/svg"
          ><g
            id="svgGroup"
            stroke-linecap="round"
            fill-rule="evenodd"
            font-size="9pt"
            stroke="#b34b4b00"
            stroke-width="0.25mm"
            fill="#09c9a3"
            style="stroke:#b34b4b00;stroke-width:0.25mm;fill:#09c9a3"
            ><path
              d="M 4.861 21.377 L 4.861 39.612 L 0 39.612 L 0 2.256 L 4.861 2.256 L 4.861 21.001 L 18.557 2.256 L 23.606 2.256 L 10.071 20.786 L 24.788 39.612 L 19.121 39.612 L 4.861 21.377 Z M 111.477 39.612 L 111.477 25.996 Q 111.477 17.375 105.3 17.375 Q 103.716 17.375 102.4 18.235 A 6.918 6.918 0 0 0 100.551 20.007 Q 99.981 20.787 99.523 21.787 A 13.33 13.33 0 0 0 99.231 22.478 Q 98.882 23.362 98.835 23.924 A 2.003 2.003 0 0 0 98.828 24.089 L 98.828 39.612 L 94.504 39.612 L 94.504 0 L 98.828 0 L 98.828 19.041 A 9.998 9.998 0 0 1 100.714 16.268 Q 102.761 14.193 105.907 13.966 A 10.968 10.968 0 0 1 106.697 13.938 A 8.512 8.512 0 0 1 109.156 14.284 A 7.515 7.515 0 0 1 110.658 14.918 Q 112.121 15.734 113.055 16.651 A 7.197 7.197 0 0 1 113.411 17.026 A 8.748 8.748 0 0 1 115.276 20.458 Q 115.669 21.794 115.768 23.395 A 17.882 17.882 0 0 1 115.801 24.492 L 115.801 39.612 L 111.477 39.612 Z M 46.46 35.046 L 47.615 38.135 A 10.42 10.42 0 0 1 44.567 39.509 Q 43.194 39.894 41.559 40.026 A 22.171 22.171 0 0 1 39.773 40.095 Q 34.554 40.095 31.335 37.611 A 10.438 10.438 0 0 1 30.132 36.523 A 12.057 12.057 0 0 1 27.078 30.495 A 17.433 17.433 0 0 1 26.748 27.017 Q 26.748 21.279 29.512 17.891 A 10.832 10.832 0 0 1 31.77 15.818 A 10.911 10.911 0 0 1 38 13.938 A 12.468 12.468 0 0 1 41.317 14.354 A 8.694 8.694 0 0 1 46.057 17.537 A 11.618 11.618 0 0 1 47.905 21.364 Q 48.35 22.931 48.483 24.779 A 21.768 21.768 0 0 1 48.528 25.647 L 47.883 27.258 L 31.072 27.258 A 13.868 13.868 0 0 0 31.365 30.028 Q 31.727 31.697 32.533 32.978 A 7.622 7.622 0 0 0 33.462 34.174 A 7.773 7.773 0 0 0 38.147 36.526 A 10.957 10.957 0 0 0 39.692 36.631 A 13.413 13.413 0 0 0 42.338 36.349 Q 43.596 36.095 44.978 35.614 A 27.178 27.178 0 0 0 46.46 35.046 Z M 141.555 35.046 L 142.71 38.135 A 10.42 10.42 0 0 1 139.662 39.509 Q 138.29 39.894 136.654 40.026 A 22.171 22.171 0 0 1 134.868 40.095 Q 129.65 40.095 126.43 37.611 A 10.438 10.438 0 0 1 125.227 36.523 A 12.057 12.057 0 0 1 122.174 30.495 A 17.433 17.433 0 0 1 121.843 27.017 Q 121.843 21.279 124.607 17.891 A 10.832 10.832 0 0 1 126.865 15.818 A 10.911 10.911 0 0 1 133.096 13.938 A 12.468 12.468 0 0 1 136.412 14.354 A 8.694 8.694 0 0 1 141.152 17.537 A 11.618 11.618 0 0 1 143 21.364 Q 143.445 22.931 143.578 24.779 A 21.768 21.768 0 0 1 143.623 25.647 L 142.979 27.258 L 126.167 27.258 A 13.868 13.868 0 0 0 126.461 30.028 Q 126.823 31.697 127.628 32.978 A 7.622 7.622 0 0 0 128.557 34.174 A 7.773 7.773 0 0 0 133.242 36.526 A 10.957 10.957 0 0 0 134.788 36.631 A 13.413 13.413 0 0 0 137.433 36.349 Q 138.691 36.095 140.073 35.614 A 27.178 27.178 0 0 0 141.555 35.046 Z M 80.835 36.631 L 80.996 36.631 A 9.554 9.554 0 0 0 85.573 35.437 A 12.537 12.537 0 0 0 87.039 34.509 L 88.704 37.41 Q 87.213 38.504 85.948 39.108 A 9.411 9.411 0 0 1 84.917 39.531 A 8.128 8.128 0 0 1 83.779 39.816 Q 82.595 40.033 80.905 40.081 A 35.415 35.415 0 0 1 79.895 40.095 A 13.841 13.841 0 0 1 76.069 39.593 A 10.411 10.411 0 0 1 71.127 36.523 A 12.118 12.118 0 0 1 68.309 30.977 A 17.753 17.753 0 0 1 67.891 27.017 Q 67.891 21.082 71.127 17.51 A 10.668 10.668 0 0 1 77.742 14.085 A 15.18 15.18 0 0 1 79.895 13.938 A 32.046 32.046 0 0 1 81.649 13.983 Q 83.72 14.097 84.917 14.502 A 9.889 9.889 0 0 1 86.23 15.065 Q 86.876 15.394 87.578 15.846 A 22.422 22.422 0 0 1 88.704 16.624 L 87.039 19.524 A 11.598 11.598 0 0 0 84.313 18.019 A 9.274 9.274 0 0 0 80.996 17.402 L 80.835 17.402 A 8.8 8.8 0 0 0 77.857 17.886 A 7.535 7.535 0 0 0 74.564 20.222 A 10.104 10.104 0 0 0 72.235 26.282 A 12.921 12.921 0 0 0 72.214 27.017 A 11.205 11.205 0 0 0 72.802 30.703 A 9.852 9.852 0 0 0 74.564 33.811 A 7.618 7.618 0 0 0 80.114 36.606 A 10.321 10.321 0 0 0 80.835 36.631 Z M 54.731 33.005 L 54.731 0 L 59.055 0 L 59.055 32.737 A 8.241 8.241 0 0 0 59.116 33.78 Q 59.261 34.909 59.747 35.551 A 2.202 2.202 0 0 0 59.874 35.704 Q 60.592 36.492 61.216 36.59 A 1.131 1.131 0 0 0 61.392 36.604 Q 61.962 36.604 63.643 36.461 A 145.583 145.583 0 0 0 64.453 36.389 L 64.802 39.531 Q 62.117 40.095 60.317 40.095 Q 54.731 40.095 54.731 33.005 Z M 31.26 24.036 L 44.285 24.036 A 10.634 10.634 0 0 0 43.868 21.791 A 7.638 7.638 0 0 0 42.539 19.229 Q 41.008 17.375 38.538 17.375 A 9.83 9.83 0 0 0 36.388 17.596 Q 34.944 17.92 33.896 18.719 A 5.666 5.666 0 0 0 32.952 19.631 A 6.478 6.478 0 0 0 31.993 21.241 Q 31.676 21.987 31.469 22.892 A 13.759 13.759 0 0 0 31.26 24.036 Z M 126.355 24.036 L 139.38 24.036 A 10.634 10.634 0 0 0 138.963 21.791 A 7.638 7.638 0 0 0 137.634 19.229 Q 136.104 17.375 133.633 17.375 A 9.83 9.83 0 0 0 131.483 17.596 Q 130.039 17.92 128.991 18.719 A 5.666 5.666 0 0 0 128.047 19.631 A 6.478 6.478 0 0 0 127.089 21.241 Q 126.772 21.987 126.564 22.892 A 13.759 13.759 0 0 0 126.355 24.036 Z"
              vector-effect="non-scaling-stroke"></path>
          </g>
        </svg>