<?xml version="1.0" standalone="no"?>
<!DOCTYPE svg PUBLIC "-//W3C//DTD SVG 20010904//EN" "http://www.w3.org/TR/2001/REC-SVG-20010904/DTD/svg10.dtd">
<svg version="1.0" xmlns="http://www.w3.org/2000/svg"
    width="16.000000pt" height="16.000000pt" viewBox="0 0 16.000000 16.000000"
    preserveAspectRatio="xMidYMid meet">

    <g transform="translate(0.000000,16.000000) scale(0.100000,-0.100000)"
        fill="#000000" stroke="none">
        <path
            d="M4 147 c-3 -8 -4 -43 -2 -78 l3 -64 75 0 75 0 0 75 0 75 -73 3 c-55
2 -74 -1 -78 -11z m80 -56 c-24 -41 -6 -65 20 -27 9 15 21 26 27 26 6 0 3 -7
-5 -16 -18 -18 -11 -38 11 -30 8 3 11 2 8 -4 -10 -16 -80 -6 -83 12 -4 19 26
83 35 75 3 -3 -3 -19 -13 -36z m-35 17 c0 -7 -7 -29 -15 -48 l-14 -35 6 35 c3
19 6 41 7 48 0 6 4 12 9 12 4 0 8 -6 7 -12z" />

    </g>
</svg>